# xmcd
#
# Track frame offsets: 
#        150
#        12309
#        37423
#        54734
#        77227
#        102132
#        125980
#        145753
#        174673
#        200045
#
# Disc length: 2986 seconds
#
# Revision: 0
# Processed by: cddbd v1.5.2PL0 Copyright (c) Steve Scherf et al.
# Submitted via: ExactAudioCopy v0.99pb5
#
DISCID=970ba80a
DTITLE=Jeff Ray - Last Great Winter
DYEAR=2007
DGENRE=Blues
TTITLE0=Dear Grenadine
TTITLE1=Low Wage Mood
TTITLE2=Higher Hilltops
TTITLE3=This Land Is Your Land
TTITLE4=Cindy Sang
TTITLE5=Human Hillsides
TTITLE6=Valley
TTITLE7=Crane
TTITLE8=Baggie's Farm
TTITLE9=My My My
EXTD=
EXTT0=
EXTT1=
EXTT2=
EXTT3=
EXTT4=
EXTT5=
EXTT6=
EXTT7=
EXTT8=
EXTT9=
PLAYORDER=
